<?xml version="1.0" encoding="utf-8"?>
<!-- Generator: Adobe Illustrator 16.0.0, SVG Export Plug-In . SVG Version: 6.00 Build 0)  -->
<!DOCTYPE svg PUBLIC "-//W3C//DTD SVG 1.1//EN" "http://www.w3.org/Graphics/SVG/1.1/DTD/svg11.dtd">
<svg version="1.1" id="Layer_1" xmlns="http://www.w3.org/2000/svg" xmlns:xlink="http://www.w3.org/1999/xlink" x="0px" y="0px"
	 width="1053.41px" height="454.94px" viewBox="0 0 1053.41 454.94" enable-background="new 0 0 1053.41 454.94"
	 xml:space="preserve">
<g>
	<defs>
		<path id="SVGID_1_" d="M0.212,36.553l109.331,103.071v137.46c0,18.104,7.146,35.22,20.122,48.191
			c12.556,12.566,29.36,19.712,47.314,20.121l0.114,0.001l2.035,0.001l0.06-0.002c17.934-0.409,34.72-7.546,47.264-20.097
			l0.063-0.061c12.948-13.397,20.079-30.501,20.079-48.155v-63.277l25.151-23.709v0.001l2.123-2.003v88.988
			c0,24.982-10.329,49.647-28.339,67.672c-17.59,17.59-41.186,27.502-66.438,27.909h-2.53c-24.823-0.408-49.045-10.582-66.37-27.909
			c-18-18.007-27.912-42.039-27.912-67.672v-127.39l-18.924-17.293l-37.46-35.314L0,71.923l0.005,220.942
			c1.51,42.642,19.874,82.728,51.705,112.877c33.488,31.726,77.991,49.198,125.309,49.198h2.1
			c47.051,0,91.407-17.476,124.897-49.208c33.605-31.412,52.127-73.517,52.127-118.538l0.221-283.431L219.306,132.972v36.555
			L328.643,66.448v210.637c0,40.03-15.752,77.828-44.355,106.431c-27.915,27.917-65.27,43.516-105.185,43.918h-2.529
			c-39.422-0.4-76.789-16.004-105.166-43.938c-28.292-28.733-43.904-66.545-43.904-106.41V135.151l27.268,25.71v116.224
			c0,33.184,12.829,64.063,36.12,86.951c22.475,22.887,53.051,35.715,86.105,36.129h2.096c32.688-0.408,63.259-13.236,86.145-36.123
			c22.962-22.968,36.13-54.661,36.13-86.957V125.062l-25.932,25.002l-37.483,35.323l-18.86,17.428v74.27
			c0,10.692-4.377,20.956-12.324,28.905c-7.146,7.131-17.054,11.468-27.196,11.905h-2.957c-10.242-0.421-19.795-4.53-27.639-11.889
			c-7.691-7.707-11.926-17.976-11.926-28.922V153.656l0.232-24.437L0.212,0V36.553z"/>
	</defs>
	<clipPath id="SVGID_2_">
		<use xlink:href="#SVGID_1_"  overflow="visible"/>
	</clipPath>
	
		<linearGradient id="SVGID_3_" gradientUnits="userSpaceOnUse" x1="-4.882813e-004" y1="454.939" x2="0.9995" y2="454.939" gradientTransform="matrix(356.364 0 0 356.364 0 -161896.7656)">
		<stop  offset="0" style="stop-color:#6644CE"/>
		<stop  offset="0.9988" style="stop-color:#38D1FF"/>
		<stop  offset="1" style="stop-color:#38D1FF"/>
	</linearGradient>
	<rect clip-path="url(#SVGID_2_)" fill="url(#SVGID_3_)" width="356.364" height="454.94"/>
</g>
<g>
	<defs>
		<rect id="SVGID_4_" x="418.949" y="-0.001" width="634.46" height="364.513"/>
	</defs>
	<clipPath id="SVGID_5_">
		<use xlink:href="#SVGID_4_"  overflow="visible"/>
	</clipPath>
	<path clip-path="url(#SVGID_5_)" fill="#FFFFFF" d="M446.499,312.288c4.396,0,7.713,1.307,9.951,3.917
		c1.253,1.47,2.278,3.646,3.078,6.528h12.568c-0.19-3.754-1.562-7.494-4.118-11.22c-4.629-6.637-11.948-9.955-21.958-9.955
		c-7.481,0-13.644,2.474-18.488,7.424c-5.57,5.687-8.355,13.779-8.355,24.279c0,9.709,2.448,17.352,7.346,22.928
		c4.898,5.549,11.624,8.324,20.182,8.324c6.916,0,12.587-2.054,17.014-6.162c4.426-4.106,7.176-9.438,8.255-15.993h-12.487
		c-0.824,3.101-1.862,5.426-3.112,6.977c-2.263,2.884-5.548,4.326-9.858,4.326c-4.204,0-7.669-1.681-10.397-5.04
		c-2.727-3.358-4.091-8.41-4.091-15.157c0-6.746,1.292-11.96,3.877-15.648C438.491,314.13,442.021,312.288,446.499,312.288"/>
	<path clip-path="url(#SVGID_5_)" fill="#FFFFFF" d="M546.624,302.7l-21.469,60.14h13.146l4.077-12.362h22.146l3.97,12.362h13.627
		l-21.277-60.14H546.624z M545.796,340.114l7.806-23.664l7.595,23.664H545.796z"/>
	<path clip-path="url(#SVGID_5_)" fill="#FFFFFF" d="M677.412,307.352c-3.54-3.102-8.286-4.652-14.238-4.652h-25.823v60.139h12.484
		v-21.623h12.522c6.535,0,11.562-1.469,15.083-4.406c3.52-2.939,5.281-7.956,5.281-15.056
		C682.722,315.252,680.951,310.452,677.412,307.352 M667.849,328.69c-1.591,1.44-3.82,2.162-6.688,2.162h-11.326v-17.707h11.326
		c2.867,0,5.097,0.667,6.688,1.999c1.592,1.334,2.388,3.563,2.388,6.691S669.44,327.249,667.849,328.69"/>
	<rect x="739.073" y="302.7" clip-path="url(#SVGID_5_)" fill="#FFFFFF" width="12.484" height="60.14"/>
	<polygon clip-path="url(#SVGID_5_)" fill="#FFFFFF" points="805.585,313.348 823.661,313.348 823.661,362.839 836.309,362.839 
		836.309,313.348 854.302,313.348 854.302,302.701 805.585,302.701 	"/>
	<path clip-path="url(#SVGID_5_)" fill="#FFFFFF" d="M919.976,302.7l-21.468,60.14h13.146l4.076-12.362h22.146l3.968,12.362h13.628
		l-21.276-60.14H919.976z M919.148,340.114l7.806-23.664l7.596,23.664H919.148z"/>
	<polygon clip-path="url(#SVGID_5_)" fill="#FFFFFF" points="1022.984,302.7 1010.418,302.7 1010.418,362.839 1053.012,362.839 
		1053.012,352.027 1022.984,352.027 	"/>
	<path clip-path="url(#SVGID_5_)" fill="#FFFFFF" d="M569.864,181.78v-81.746h-31.441v81.746c0,28.297-18.55,48.733-44.016,48.733
		c-25.468,0-44.018-20.436-44.018-48.733v-81.746H418.95v81.746c0,45.274,32.068,78.601,75.457,78.601
		C537.794,260.381,569.864,227.054,569.864,181.78"/>
	<rect x="814.464" y="100.035" clip-path="url(#SVGID_5_)" fill="#FFFFFF" width="31.439" height="157.204"/>
	<polygon clip-path="url(#SVGID_5_)" fill="#FFFFFF" points="1053.41,100.035 1008.764,100.035 924.188,176.121 924.188,100.035 
		892.749,100.035 892.749,257.239 924.188,257.239 924.188,216.051 957.831,185.868 1015.053,257.239 1053.41,257.239 
		980.153,165.746 	"/>
	<path clip-path="url(#SVGID_5_)" fill="#FFFFFF" d="M753.473,176.75c4.248-3.339,7.681-7.489,10.106-12.262
		c2.602-5.117,4.04-10.949,4.04-17.292c0-6.896-1.128-13.225-3.23-18.864c-6.53-17.501-22.528-28.297-43.93-28.297H616.705v28.297
		h31.441h72.313c9.434,0,15.721,6.287,15.721,15.719v4.717c0,9.431-6.287,15.72-15.721,15.72h-72.313h-31.441v92.75h110.041
		c28.297,0,47.161-18.865,47.161-47.162C773.907,194.986,766.363,183.352,753.473,176.75 M742.469,213.221
		c0,9.431-6.289,15.72-15.723,15.72h-78.6v-36.157h78.6c9.434,0,15.723,6.288,15.723,15.72V213.221z"/>
</g>
</svg>
